# Blender v2.79 (sub 0) OBJ File: ''
# www.blender.org
mtllib bowl.mtl
o bowl
v 0.635000 0.350000 -0.635000
v 0.900000 0.350000 0.000000
v 0.000000 0.350000 0.000000
v 0.900000 0.350000 0.000000
v 0.635000 0.350000 0.635000
v 0.000000 0.350000 0.000000
v 0.635000 0.350000 0.635000
v 0.000000 0.350000 0.900000
v 0.000000 0.350000 0.000000
v 0.000000 0.350000 0.900000
v -0.635000 0.350000 0.635000
v 0.000000 0.350000 0.000000
v -0.635000 0.350000 0.635000
v -0.900000 0.350000 0.000000
v 0.000000 0.350000 0.000000
v -0.635000 0.350000 -0.635000
v 0.000000 0.350000 -0.900000
v 0.000000 0.350000 0.000000
v -0.900000 0.350000 0.000000
v -0.635000 0.350000 -0.635000
v 0.000000 0.350000 0.000000
v 0.000000 0.350000 -0.900000
v 0.635000 0.350000 -0.635000
v 0.000000 0.350000 0.000000
v 0.780000 0.700000 -0.780000
v 1.150000 0.850000 0.000000
v 1.100000 0.700000 0.000000
v 0.635000 0.350000 -0.635000
v 1.100000 0.700000 0.000000
v 0.900000 0.350000 0.000000
v 0.355000 0.050000 -0.355000
v 0.500000 0.050000 0.000000
v 0.635000 0.350000 -0.635000
v 0.355000 0.050000 -0.355000
v 0.000000 0.000000 0.000000
v 0.500000 0.050000 0.000000
v 0.000000 0.700000 -1.100000
v 0.000000 0.850000 -1.150000
v 0.780000 0.700000 -0.780000
v 0.000000 0.350000 -0.900000
v 0.000000 0.700000 -1.100000
v 0.635000 0.350000 -0.635000
v 0.000000 0.050000 -0.500000
v 0.355000 0.050000 -0.355000
v 0.635000 0.350000 -0.635000
v 0.000000 0.050000 -0.500000
v 0.000000 0.000000 0.000000
v 0.355000 0.050000 -0.355000
v -0.780000 0.700000 -0.780000
v 0.000000 0.850000 -1.150000
v 0.000000 0.700000 -1.100000
v -0.635000 0.350000 -0.635000
v 0.000000 0.700000 -1.100000
v 0.000000 0.350000 -0.900000
v -0.355000 0.050000 -0.355000
v 0.000000 0.050000 -0.500000
v -0.635000 0.350000 -0.635000
v -0.355000 0.050000 -0.355000
v 0.000000 0.000000 0.000000
v 0.000000 0.050000 -0.500000
v -1.100000 0.700000 0.000000
v -1.150000 0.850000 0.000000
v -0.780000 0.700000 -0.780000
v -0.900000 0.350000 0.000000
v -1.100000 0.700000 0.000000
v -0.635000 0.350000 -0.635000
v -0.500000 0.050000 0.000000
v -0.355000 0.050000 -0.355000
v -0.635000 0.350000 -0.635000
v -0.500000 0.050000 0.000000
v 0.000000 0.000000 0.000000
v -0.355000 0.050000 -0.355000
v -0.780000 0.700000 0.780000
v -1.150000 0.850000 0.000000
v -1.100000 0.700000 0.000000
v -0.635000 0.350000 0.635000
v -1.100000 0.700000 0.000000
v -0.900000 0.350000 0.000000
v -0.355000 0.050000 0.355000
v -0.500000 0.050000 0.000000
v -0.635000 0.350000 0.635000
v -0.355000 0.050000 0.355000
v 0.000000 0.000000 0.000000
v -0.500000 0.050000 0.000000
v 0.000000 0.700000 1.100000
v -0.815000 0.850000 0.815000
v -0.780000 0.700000 0.780000
v 0.000000 0.350000 0.900000
v 0.000000 0.700000 1.100000
v -0.635000 0.350000 0.635000
v 0.000000 0.050000 0.500000
v -0.355000 0.050000 0.355000
v -0.635000 0.350000 0.635000
v 0.000000 0.050000 0.500000
v 0.000000 0.000000 0.000000
v -0.355000 0.050000 0.355000
v 0.780000 0.700000 0.780000
v 0.000000 0.850000 1.150000
v 0.000000 0.700000 1.100000
v 0.635000 0.350000 0.635000
v 0.780000 0.700000 0.780000
v 0.000000 0.350000 0.900000
v 0.355000 0.050000 0.355000
v 0.000000 0.050000 0.500000
v 0.000000 0.350000 0.900000
v 0.355000 0.050000 0.355000
v 0.000000 0.000000 0.000000
v 0.000000 0.050000 0.500000
v 1.100000 0.700000 0.000000
v 1.150000 0.850000 0.000000
v 0.780000 0.700000 0.780000
v 0.900000 0.350000 0.000000
v 0.780000 0.700000 0.780000
v 0.635000 0.350000 0.635000
v 0.500000 0.050000 0.000000
v 0.355000 0.050000 0.355000
v 0.900000 0.350000 0.000000
v 0.500000 0.050000 0.000000
v 0.000000 0.000000 0.000000
v 0.355000 0.050000 0.355000
v 0.900000 0.350000 0.000000
v 0.355000 0.050000 0.355000
v 0.635000 0.350000 0.635000
v 0.355000 0.050000 0.355000
v 0.000000 0.350000 0.900000
v 0.635000 0.350000 0.635000
v 0.900000 0.350000 0.000000
v 1.100000 0.700000 0.000000
v 0.780000 0.700000 0.780000
v 0.780000 0.700000 0.780000
v 0.000000 0.700000 1.100000
v 0.000000 0.350000 0.900000
v 1.150000 0.850000 0.000000
v 0.815000 0.850000 0.815000
v 0.780000 0.700000 0.780000
v 0.780000 0.700000 0.780000
v 0.815000 0.850000 0.815000
v 0.000000 0.850000 1.150000
v 0.000000 0.050000 0.500000
v -0.635000 0.350000 0.635000
v 0.000000 0.350000 0.900000
v 0.000000 0.700000 1.100000
v -0.780000 0.700000 0.780000
v -0.635000 0.350000 0.635000
v 0.000000 0.700000 1.100000
v 0.000000 0.850000 1.150000
v -0.815000 0.850000 0.815000
v -0.635000 0.350000 0.635000
v -0.500000 0.050000 0.000000
v -0.900000 0.350000 0.000000
v -0.635000 0.350000 0.635000
v -0.780000 0.700000 0.780000
v -1.100000 0.700000 0.000000
v -0.780000 0.700000 0.780000
v -0.815000 0.850000 0.815000
v -1.150000 0.850000 0.000000
v -0.500000 0.050000 0.000000
v -0.635000 0.350000 -0.635000
v -0.900000 0.350000 0.000000
v -1.100000 0.700000 0.000000
v -0.780000 0.700000 -0.780000
v -0.635000 0.350000 -0.635000
v -1.150000 0.850000 0.000000
v -0.815000 0.850000 -0.815000
v -0.780000 0.700000 -0.780000
v -0.635000 0.350000 -0.635000
v 0.000000 0.050000 -0.500000
v 0.000000 0.350000 -0.900000
v -0.635000 0.350000 -0.635000
v -0.780000 0.700000 -0.780000
v 0.000000 0.700000 -1.100000
v -0.780000 0.700000 -0.780000
v -0.815000 0.850000 -0.815000
v 0.000000 0.850000 -1.150000
v 0.000000 0.050000 -0.500000
v 0.635000 0.350000 -0.635000
v 0.000000 0.350000 -0.900000
v 0.000000 0.700000 -1.100000
v 0.780000 0.700000 -0.780000
v 0.635000 0.350000 -0.635000
v 0.000000 0.850000 -1.150000
v 0.815000 0.850000 -0.815000
v 0.780000 0.700000 -0.780000
v 0.635000 0.350000 -0.635000
v 0.500000 0.050000 0.000000
v 0.900000 0.350000 0.000000
v 0.635000 0.350000 -0.635000
v 0.780000 0.700000 -0.780000
v 1.100000 0.700000 0.000000
v 0.780000 0.700000 -0.780000
v 0.815000 0.850000 -0.815000
v 1.150000 0.850000 0.000000
v 0.780000 0.700000 -0.780000
v 1.100000 0.700000 0.000000
v 1.150000 0.850000 0.000000
v 0.635000 0.350000 -0.635000
v 0.900000 0.350000 0.000000
v 1.100000 0.700000 0.000000
v 0.000000 0.700000 -1.100000
v 0.780000 0.700000 -0.780000
v 0.000000 0.850000 -1.150000
v 0.000000 0.350000 -0.900000
v 0.635000 0.350000 -0.635000
v 0.000000 0.700000 -1.100000
v -0.780000 0.700000 -0.780000
v 0.000000 0.700000 -1.100000
v 0.000000 0.850000 -1.150000
v -0.635000 0.350000 -0.635000
v 0.000000 0.350000 -0.900000
v 0.000000 0.700000 -1.100000
v -1.100000 0.700000 0.000000
v -0.780000 0.700000 -0.780000
v -1.150000 0.850000 0.000000
v -0.900000 0.350000 0.000000
v -0.635000 0.350000 -0.635000
v -1.100000 0.700000 0.000000
v -0.780000 0.700000 0.780000
v -1.100000 0.700000 0.000000
v -1.150000 0.850000 0.000000
v -0.635000 0.350000 0.635000
v -0.900000 0.350000 0.000000
v -1.100000 0.700000 0.000000
v 0.000000 0.700000 1.100000
v -0.780000 0.700000 0.780000
v -0.815000 0.850000 0.815000
v 0.000000 0.350000 0.900000
v -0.635000 0.350000 0.635000
v 0.000000 0.700000 1.100000
v 0.780000 0.700000 0.780000
v 0.000000 0.700000 1.100000
v 0.000000 0.850000 1.150000
v 0.635000 0.350000 0.635000
v 0.000000 0.350000 0.900000
v 0.780000 0.700000 0.780000
v 1.100000 0.700000 0.000000
v 0.780000 0.700000 0.780000
v 1.150000 0.850000 0.000000
v 0.900000 0.350000 0.000000
v 0.635000 0.350000 0.635000
v 0.780000 0.700000 0.780000
v 0.900000 0.350000 0.000000
v 0.780000 0.700000 0.780000
v 1.100000 0.700000 0.000000
v 0.780000 0.700000 0.780000
v 0.000000 0.350000 0.900000
v 0.000000 0.700000 1.100000
v 1.150000 0.850000 0.000000
v 0.780000 0.700000 0.780000
v 0.815000 0.850000 0.815000
v 0.780000 0.700000 0.780000
v 0.000000 0.850000 1.150000
v 0.815000 0.850000 0.815000
v 0.000000 0.700000 1.100000
v -0.635000 0.350000 0.635000
v -0.780000 0.700000 0.780000
v 0.000000 0.700000 1.100000
v -0.815000 0.850000 0.815000
v 0.000000 0.850000 1.150000
v -0.635000 0.350000 0.635000
v -1.100000 0.700000 0.000000
v -0.780000 0.700000 0.780000
v -0.780000 0.700000 0.780000
v -1.150000 0.850000 0.000000
v -0.815000 0.850000 0.815000
v -1.100000 0.700000 0.000000
v -0.635000 0.350000 -0.635000
v -0.780000 0.700000 -0.780000
v -1.150000 0.850000 0.000000
v -0.780000 0.700000 -0.780000
v -0.815000 0.850000 -0.815000
v -0.635000 0.350000 -0.635000
v 0.000000 0.700000 -1.100000
v -0.780000 0.700000 -0.780000
v -0.780000 0.700000 -0.780000
v 0.000000 0.850000 -1.150000
v -0.815000 0.850000 -0.815000
v 0.000000 0.700000 -1.100000
v 0.635000 0.350000 -0.635000
v 0.780000 0.700000 -0.780000
v 0.000000 0.850000 -1.150000
v 0.780000 0.700000 -0.780000
v 0.815000 0.850000 -0.815000
v 0.635000 0.350000 -0.635000
v 1.100000 0.700000 0.000000
v 0.780000 0.700000 -0.780000
v 0.780000 0.700000 -0.780000
v 1.150000 0.850000 0.000000
v 0.815000 0.850000 -0.815000
vt 0.354448 0.000856
vt 0.470856 0.117263
vt 0.354448 0.165120
vt 0.236584 0.401209
vt 0.352736 0.285057
vt 0.401209 0.401209
vt 0.234872 0.000856
vt 0.234872 0.165481
vt 0.118720 0.117008
vt 0.236584 0.000856
vt 0.352736 0.117008
vt 0.236584 0.165481
vt 0.401209 0.283345
vt 0.236584 0.283345
vt 0.285057 0.167193
vt 0.000856 0.331818
vt 0.000856 0.167193
vt 0.117008 0.215666
vt 0.152782 0.396932
vt 0.000856 0.459391
vt 0.000856 0.333530
vt 0.117008 0.165481
vt 0.000856 0.049329
vt 0.117008 0.000856
vt 0.969806 0.939812
vt 0.942180 0.948371
vt 0.942180 0.788092
vt 0.749191 0.594185
vt 0.691374 0.639948
vt 0.691374 0.482390
vt 0.852428 0.166838
vt 0.852428 0.297652
vt 0.806081 0.245001
vt 0.900956 0.070999
vt 0.815795 0.036417
vt 0.900956 0.000856
vt 0.881119 0.956252
vt 0.720840 0.956252
vt 0.729398 0.928626
vt 0.158414 0.816243
vt 0.000856 0.816243
vt 0.046619 0.758426
vt 0.822189 0.819619
vt 0.744025 0.865966
vt 0.691374 0.819619
vt 0.876548 0.393363
vt 0.840987 0.478523
vt 0.806405 0.393363
vt 0.710569 0.928626
vt 0.719128 0.956252
vt 0.558848 0.956252
vt 0.348379 0.716106
vt 0.394142 0.773923
vt 0.236584 0.773923
vt 0.558848 0.819619
vt 0.689663 0.819619
vt 0.637012 0.865966
vt 0.880575 0.712973
vt 0.845992 0.798133
vt 0.810432 0.712973
vt 0.972052 0.136472
vt 0.972052 0.296752
vt 0.944426 0.288193
vt 0.766025 0.000856
vt 0.766025 0.158414
vt 0.708208 0.112651
vt 0.758023 0.166838
vt 0.804369 0.245001
vt 0.758023 0.297652
vt 0.810432 0.482390
vt 0.895592 0.517951
vt 0.810432 0.552533
vt 0.939208 0.325902
vt 0.966834 0.317344
vt 0.966834 0.477623
vt 0.698494 0.345127
vt 0.756311 0.299364
vt 0.756311 0.456922
vt 0.767737 0.131670
vt 0.767737 0.000856
vt 0.814084 0.053506
vt 0.806405 0.364623
vt 0.871131 0.299364
vt 0.871131 0.391651
vt 0.824364 0.129642
vt 0.815795 0.102049
vt 0.976090 0.102049
vt 0.558848 0.760091
vt 0.716406 0.760091
vt 0.670644 0.817908
vt 0.236584 0.881510
vt 0.314748 0.835163
vt 0.367398 0.881510
vt 0.810432 0.711261
vt 0.845992 0.626100
vt 0.880575 0.711261
vt 0.377669 0.954350
vt 0.369110 0.926724
vt 0.529390 0.926724
vt 0.558848 0.700343
vt 0.716762 0.700343
vt 0.670530 0.758379
vt 0.804693 0.430383
vt 0.758023 0.351728
vt 0.804693 0.299364
vt 0.198845 0.882682
vt 0.133587 0.817955
vt 0.225873 0.817955
vt 0.943396 0.786380
vt 0.943396 0.626100
vt 0.971022 0.634659
vt 0.696782 0.411045
vt 0.638746 0.457277
vt 0.638746 0.299364
vt 0.131875 0.864625
vt 0.000856 0.864625
vt 0.053220 0.817955
vt 0.895592 0.624389
vt 0.810432 0.588828
vt 0.895592 0.554245
vt 0.439490 0.714194
vt 0.402921 0.631006
vt 0.533940 0.631006
vt 0.753084 0.253790
vt 0.627224 0.253790
vt 0.725544 0.167193
vt 0.617775 0.158769
vt 0.547054 0.021726
vt 0.617775 0.000856
vt 0.416807 0.629294
vt 0.402921 0.556877
vt 0.557136 0.556877
vt 0.749191 0.799352
vt 0.720510 0.802840
vt 0.720510 0.641660
vt 0.558848 0.926914
vt 0.717426 0.898071
vt 0.719128 0.926914
vt 0.356322 0.714394
vt 0.236584 0.675615
vt 0.356322 0.622936
vt 0.236584 0.547095
vt 0.257363 0.475864
vt 0.394142 0.547095
vt 0.369110 0.894457
vt 0.527683 0.865587
vt 0.529405 0.894457
vt 0.553320 0.363294
vt 0.637034 0.326463
vt 0.637034 0.457277
vt 0.519987 0.167193
vt 0.550064 0.318447
vt 0.475864 0.318447
vt 0.884533 0.136472
vt 0.913376 0.295050
vt 0.884533 0.296752
vt 0.000856 0.609957
vt 0.126717 0.609957
vt 0.029035 0.696966
vt 0.163641 0.326463
vt 0.234872 0.347242
vt 0.163641 0.484021
vt 0.133248 0.170680
vt 0.161929 0.167193
vt 0.161929 0.328373
vt 0.652831 0.482390
vt 0.689663 0.566105
vt 0.558848 0.566105
vt 0.152110 0.578168
vt 0.000856 0.608245
vt 0.000856 0.534045
vt 0.529390 0.896169
vt 0.370812 0.925012
vt 0.369110 0.896169
vt 0.706496 0.000856
vt 0.706496 0.126717
vt 0.619487 0.029035
vt 0.158414 0.461103
vt 0.137635 0.532334
vt 0.000856 0.461103
vt 0.716540 0.867678
vt 0.720028 0.896359
vt 0.558848 0.896359
vt 0.642563 0.661800
vt 0.558848 0.698631
vt 0.558848 0.567816
vt 0.507485 0.477717
vt 0.477408 0.326463
vt 0.551608 0.326463
vt 0.911129 0.786380
vt 0.882287 0.627802
vt 0.911129 0.626100
vt 0.999144 0.948371
vt 0.971518 0.939812
vt 0.999144 0.788092
vt 0.553412 0.775634
vt 0.507649 0.833451
vt 0.395854 0.775634
vt 0.133587 0.914787
vt 0.293866 0.914787
vt 0.142145 0.942413
vt 0.221458 0.645358
vt 0.221458 0.802917
vt 0.163641 0.691121
vt 0.293866 0.944125
vt 0.285307 0.971752
vt 0.133587 0.944125
vt 0.750903 0.641660
vt 0.808720 0.687423
vt 0.750903 0.799218
vt 0.915088 0.296752
vt 0.915088 0.136472
vt 0.942714 0.288193
vt 0.395854 0.716106
vt 0.553412 0.716106
vt 0.441617 0.773923
vt 0.968546 0.317344
vt 0.996172 0.325902
vt 0.968546 0.477623
vt 0.236584 0.833451
vt 0.282347 0.775634
vt 0.394142 0.833451
vt 0.369110 0.983655
vt 0.377679 0.956062
vt 0.529405 0.983655
vt 0.750903 0.639948
vt 0.750903 0.482390
vt 0.808720 0.594185
vt 0.815795 0.100337
vt 0.824354 0.072711
vt 0.976075 0.100337
vt 0.158769 0.756714
vt 0.000856 0.756714
vt 0.112537 0.698678
vt 0.940468 0.788092
vt 0.940468 0.948371
vt 0.912841 0.796651
vt 0.221678 0.643646
vt 0.163641 0.597414
vt 0.221678 0.485733
vt 0.625512 0.167193
vt 0.596471 0.318649
vt 0.551776 0.167193
vt 0.236584 0.621224
vt 0.250470 0.548807
vt 0.390799 0.621224
vt 0.937496 0.475922
vt 0.908653 0.477623
vt 0.908653 0.317344
vt 0.294766 0.913075
vt 0.133587 0.913075
vt 0.291279 0.884394
vt 0.163641 0.187972
vt 0.234872 0.167193
vt 0.234872 0.324751
vt 0.530290 0.863875
vt 0.369110 0.863875
vt 0.526813 0.835163
vt 0.472568 0.155071
vt 0.472568 0.000856
vt 0.545343 0.140600
vt 0.854140 0.297652
vt 0.854140 0.136472
vt 0.882821 0.294165
vt 0.373363 0.402921
vt 0.394142 0.474152
vt 0.236584 0.474152
vt 0.912841 0.627802
vt 0.941684 0.626100
vt 0.941684 0.786380
vt 0.402921 0.482390
vt 0.557136 0.482390
vt 0.417392 0.555165
vt 0.721740 0.867678
vt 0.882919 0.867678
vt 0.725227 0.896359
vt 0.474152 0.303972
vt 0.402921 0.324751
vt 0.402921 0.167193
vt 0.879417 0.898071
vt 0.881119 0.926914
vt 0.720840 0.926914
vt 0.475696 0.326463
vt 0.475696 0.480678
vt 0.402921 0.340934
vt 0.906941 0.317344
vt 0.906941 0.478523
vt 0.878260 0.320831
vn 0.0000 1.0000 0.0000
vn -0.8841 0.2947 0.3627
vn -0.8163 0.4665 0.3407
vn 0.5877 -0.7726 -0.2401
vn 0.0994 -0.9942 -0.0406
vn -0.3627 0.2947 0.8841
vn -0.3407 0.4665 0.8163
vn 0.2401 -0.7726 -0.5877
vn 0.0406 -0.9942 -0.0994
vn 0.3627 0.2947 0.8841
vn 0.3407 0.4665 0.8163
vn -0.2401 -0.7726 -0.5877
vn -0.0406 -0.9942 -0.0994
vn 0.8841 0.2947 0.3627
vn 0.8163 0.4665 0.3407
vn -0.5877 -0.7726 -0.2401
vn -0.0994 -0.9942 -0.0406
vn 0.8841 0.2947 -0.3627
vn 0.8163 0.4665 -0.3407
vn -0.5877 -0.7726 0.2401
vn -0.0994 -0.9942 0.0406
vn 0.3631 0.2912 -0.8851
vn 0.3407 0.4665 -0.8163
vn -0.2401 -0.7726 0.5877
vn -0.0406 -0.9942 0.0994
vn -0.3627 0.2947 -0.8841
vn -0.3386 0.4764 -0.8114
vn 0.2380 -0.7770 0.5828
vn 0.0406 -0.9942 0.0994
vn -0.8841 0.2947 -0.3627
vn -0.8114 0.4764 -0.3386
vn 0.5828 -0.7770 0.2380
vn 0.0994 -0.9942 0.0406
vn 0.5848 -0.7736 0.2441
vn 0.2441 -0.7736 0.5848
vn -0.8179 0.4674 -0.3356
vn -0.3356 0.4674 -0.8179
vn -0.8848 0.2913 -0.3637
vn -0.3637 0.2913 -0.8848
vn -0.2429 -0.7760 0.5820
vn 0.3339 0.4755 -0.8139
vn 0.3633 0.2946 -0.8839
vn -0.5820 -0.7760 0.2429
vn 0.8139 0.4755 -0.3339
vn 0.8848 0.2913 -0.3637
vn -0.5820 -0.7760 -0.2429
vn 0.8139 0.4755 0.3339
vn 0.8848 0.2913 0.3637
vn -0.2429 -0.7760 -0.5820
vn 0.3339 0.4755 0.8139
vn 0.3637 0.2913 0.8848
vn 0.2429 -0.7760 -0.5820
vn -0.3339 0.4755 0.8139
vn -0.3637 0.2913 0.8848
vn 0.5820 -0.7760 -0.2429
vn -0.8139 0.4755 0.3339
vn -0.8848 0.2913 0.3637
vn 0.8841 -0.2947 -0.3627
vn 0.8163 -0.4665 -0.3407
vn 0.3627 -0.2947 -0.8841
vn 0.3407 -0.4665 -0.8163
vn -0.3627 -0.2947 -0.8841
vn -0.3407 -0.4665 -0.8163
vn -0.8841 -0.2947 -0.3627
vn -0.8163 -0.4665 -0.3407
vn -0.8841 -0.2947 0.3627
vn -0.8163 -0.4665 0.3407
vn -0.3631 -0.2912 0.8851
vn -0.3407 -0.4665 0.8163
vn 0.3627 -0.2947 0.8841
vn 0.3386 -0.4764 0.8114
vn 0.8841 -0.2947 0.3627
vn 0.8114 -0.4764 0.3386
vn 0.8179 -0.4674 0.3356
vn 0.3356 -0.4674 0.8179
vn 0.8848 -0.2913 0.3637
vn 0.3637 -0.2913 0.8848
vn -0.3339 -0.4755 0.8139
vn -0.3633 -0.2946 0.8839
vn -0.8139 -0.4755 0.3339
vn -0.8848 -0.2913 0.3637
vn -0.8139 -0.4755 -0.3339
vn -0.8848 -0.2913 -0.3637
vn -0.3339 -0.4755 -0.8139
vn -0.3637 -0.2913 -0.8848
vn 0.3339 -0.4755 -0.8139
vn 0.3637 -0.2913 -0.8848
vn 0.8139 -0.4755 -0.3339
vn 0.8848 -0.2913 -0.3637
usemtl material0
s off
f 3/1/1 2/2/1 1/3/1
f 6/4/1 5/5/1 4/6/1
f 9/7/1 8/8/1 7/9/1
f 12/10/1 11/11/1 10/12/1
f 15/13/1 14/14/1 13/15/1
f 18/16/1 17/17/1 16/18/1
f 21/19/1 20/20/1 19/21/1
f 24/22/1 23/23/1 22/24/1
f 27/25/2 26/26/2 25/27/2
f 30/28/3 29/29/3 28/30/3
f 33/31/4 32/32/4 31/33/4
f 36/34/5 35/35/5 34/36/5
f 39/37/6 38/38/6 37/39/6
f 42/40/7 41/41/7 40/42/7
f 45/43/8 44/44/8 43/45/8
f 48/46/9 47/47/9 46/48/9
f 51/49/10 50/50/10 49/51/10
f 54/52/11 53/53/11 52/54/11
f 57/55/12 56/56/12 55/57/12
f 60/58/13 59/59/13 58/60/13
f 63/61/14 62/62/14 61/63/14
f 66/64/15 65/65/15 64/66/15
f 69/67/16 68/68/16 67/69/16
f 72/70/17 71/71/17 70/72/17
f 75/73/18 74/74/18 73/75/18
f 78/76/19 77/77/19 76/78/19
f 81/79/20 80/80/20 79/81/20
f 84/82/21 83/83/21 82/84/21
f 87/85/22 86/86/22 85/87/22
f 90/88/23 89/89/23 88/90/23
f 93/91/24 92/92/24 91/93/24
f 96/94/25 95/95/25 94/96/25
f 99/97/26 98/98/26 97/99/26
f 102/100/27 101/101/27 100/102/27
f 105/103/28 104/104/28 103/105/28
f 108/106/29 107/107/29 106/108/29
f 111/109/30 110/110/30 109/111/30
f 114/112/31 113/113/31 112/114/31
f 117/115/32 116/116/32 115/117/32
f 120/118/33 119/119/33 118/120/33
f 123/121/34 122/122/34 121/123/34
f 126/124/35 125/125/35 124/126/35
f 129/127/36 128/128/36 127/129/36
f 132/130/37 131/131/37 130/132/37
f 135/133/38 134/134/38 133/135/38
f 138/136/39 137/137/39 136/138/39
f 141/139/40 140/140/40 139/141/40
f 144/142/41 143/143/41 142/144/41
f 147/145/42 146/146/42 145/147/42
f 150/148/43 149/149/43 148/150/43
f 153/151/44 152/152/44 151/153/44
f 156/154/45 155/155/45 154/156/45
f 159/157/46 158/158/46 157/159/46
f 162/160/47 161/161/47 160/162/47
f 165/163/48 164/164/48 163/165/48
f 168/166/49 167/167/49 166/168/49
f 171/169/50 170/170/50 169/171/50
f 174/172/51 173/173/51 172/174/51
f 177/175/52 176/176/52 175/177/52
f 180/178/53 179/179/53 178/180/53
f 183/181/54 182/182/54 181/183/54
f 186/184/55 185/185/55 184/186/55
f 189/187/56 188/188/56 187/189/56
f 192/190/57 191/191/57 190/192/57
f 195/193/58 194/194/58 193/195/58
f 198/196/59 197/197/59 196/198/59
f 201/199/60 200/200/60 199/201/60
f 204/202/61 203/203/61 202/204/61
f 207/205/62 206/206/62 205/207/62
f 210/208/63 209/209/63 208/210/63
f 213/211/64 212/212/64 211/213/64
f 216/214/65 215/215/65 214/216/65
f 219/217/66 218/218/66 217/219/66
f 222/220/67 221/221/67 220/222/67
f 225/223/68 224/224/68 223/225/68
f 228/226/69 227/227/69 226/228/69
f 231/229/70 230/230/70 229/231/70
f 234/232/71 233/233/71 232/234/71
f 237/235/72 236/236/72 235/237/72
f 240/238/73 239/239/73 238/240/73
f 243/241/74 242/242/74 241/243/74
f 246/244/75 245/245/75 244/246/75
f 249/247/76 248/248/76 247/249/76
f 252/250/77 251/251/77 250/252/77
f 255/253/78 254/254/78 253/255/78
f 258/256/79 257/257/79 256/258/79
f 261/259/80 260/260/80 259/261/80
f 264/262/81 263/263/81 262/264/81
f 267/265/82 266/266/82 265/267/82
f 270/268/83 269/269/83 268/270/83
f 273/271/84 272/272/84 271/273/84
f 276/274/85 275/275/85 274/276/85
f 279/277/86 278/278/86 277/279/86
f 282/280/87 281/281/87 280/282/87
f 285/283/88 284/284/88 283/285/88
f 288/286/89 287/287/89 286/288/89
